<?xml version="1.0" encoding="iso-8859-1"?>
<!-- Generator: Adobe Illustrator 17.1.0, SVG Export Plug-In . SVG Version: 6.00 Build 0)  -->
<!DOCTYPE svg PUBLIC "-//W3C//DTD SVG 1.1//EN" "http://www.w3.org/Graphics/SVG/1.1/DTD/svg11.dtd">
<svg version="1.1" id="Capa_1" xmlns="http://www.w3.org/2000/svg" xmlns:xlink="http://www.w3.org/1999/xlink" x="0px" y="0px"
	 viewBox="0 0 213.039 213.039" style="enable-background:new 0 0 213.039 213.039;" xml:space="preserve">
<path d="M210.539,207.546H2.5c-1.381,0-2.5-1.119-2.5-2.5s1.119-2.5,2.5-2.5h19.01v-51.281c0-10.013,8.146-18.159,18.159-18.159
	h16.857V100.57c0-8.547,6.953-15.5,15.5-15.5H97.52V57.757c0-1.381,1.119-2.5,2.5-2.5h4v-4.339
	c-0.149-0.015-0.263-0.029-0.337-0.039c-3.784-0.404-10.838-3.83-10.838-14.001c0-6.591,3.542-9.671,6.387-12.146
	c2.37-2.062,3.607-3.245,3.607-5.559c0-5.942-2.425-9.778-2.45-9.816c-0.604-0.938-0.517-2.167,0.217-3.005
	c0.733-0.839,1.93-1.097,2.939-0.623c0.68,0.319,16.649,8.032,16.649,26.963c0,6.847-1.867,11.908-5.55,15.044
	c-1.828,1.557-3.831,2.387-5.625,2.816v4.705h4c1.381,0,2.5,1.119,2.5,2.5V85.07h25.493c8.547,0,15.5,6.953,15.5,15.5v32.536h16.857
	c10.013,0,18.159,8.146,18.159,18.159v51.281h19.01c1.381,0,2.5,1.119,2.5,2.5S211.919,207.546,210.539,207.546z M26.51,202.546
	h160.019v-10.99H26.51V202.546z M26.51,186.556h160.019v-8.53H26.51V186.556z M26.51,173.026h160.019v-17.033l-3.1,3.1
	c-4.574,4.574-12.017,4.574-16.592,0l-0.666-0.667c-1.272-1.271-2.962-1.972-4.761-1.972c-1.799,0-3.489,0.701-4.761,1.972
	l-0.864,0.863c-2.216,2.216-5.162,3.437-8.296,3.437c-3.134,0-6.08-1.22-8.296-3.437l-0.799-0.799
	c-1.272-1.271-2.962-1.972-4.761-1.972s-3.489,0.701-4.761,1.972l-0.898,0.898c-4.574,4.574-12.017,4.575-16.592,0l-1.066-1.066
	c-2.625-2.625-6.896-2.625-9.521,0l-0.903,0.903c-4.575,4.575-12.019,4.575-16.592,0l-0.933-0.933c-2.625-2.625-6.896-2.625-9.522,0
	l-0.666,0.666c-4.575,4.575-12.019,4.575-16.592,0l-0.267-0.267c-2.625-2.625-6.896-2.625-9.522,0
	c-2.216,2.216-5.162,3.437-8.296,3.437s-6.08-1.221-8.296-3.437l-2.694-2.694V173.026z M105.555,151.356
	c3.004,0,6.009,1.144,8.296,3.431l1.066,1.066c2.626,2.625,6.897,2.625,9.522,0l0.898-0.898c2.216-2.216,5.163-3.437,8.296-3.437
	s6.08,1.221,8.296,3.437l0.799,0.799c1.272,1.271,2.962,1.972,4.761,1.972c1.799,0,3.489-0.7,4.761-1.972l0.863-0.863
	c2.216-2.216,5.162-3.437,8.296-3.437c3.134,0,6.08,1.221,8.296,3.437l0.666,0.666c2.626,2.624,6.897,2.625,9.522,0l6.458-6.457
	c-1.035-6.23-6.462-10.995-12.981-10.995H39.669c-6.52,0-11.948,4.767-12.981,10.999l6.053,6.053
	c1.272,1.271,2.962,1.972,4.761,1.972s3.489-0.701,4.76-1.972c4.575-4.574,12.019-4.574,16.593,0l0.267,0.267
	c2.625,2.625,6.896,2.624,9.522,0l0.666-0.666c4.574-4.575,12.018-4.575,16.592,0l0.933,0.933c2.625,2.625,6.896,2.625,9.522,0
	l0.903-0.903C99.546,152.5,102.55,151.356,105.555,151.356z M61.526,133.106h89.986v-9.929H61.526V133.106z M61.526,118.177h89.986
	V104.63l-2.351,2.573c-0.025,0.028-0.051,0.055-0.078,0.082c-1.961,1.961-4.568,3.041-7.341,3.041s-5.38-1.08-7.341-3.041
	l-0.91-0.91c-1.017-1.016-2.368-1.576-3.806-1.576s-2.789,0.56-3.805,1.576l-0.771,0.771c-4.047,4.048-10.633,4.048-14.681,0
	l-0.796-0.796c-2.099-2.098-5.513-2.098-7.611,0l-0.569,0.568c-4.046,4.049-10.633,4.047-14.681,0l-0.229-0.23
	c-2.097-2.096-5.511-2.096-7.609,0.002c-1.961,1.961-4.568,3.041-7.341,3.041s-5.38-1.08-7.341-3.041l-2.727-2.727V118.177z
	 M129.687,99.798c2.773,0,5.38,1.08,7.341,3.041l0.91,0.91c1.017,1.016,2.368,1.576,3.806,1.576c1.42,0,2.757-0.547,3.769-1.541
	l5.461-5.978c0.043-0.047,0.087-0.092,0.133-0.135c-1.261-4.384-5.309-7.602-10.093-7.602H72.026c-4.681,0-8.655,3.078-10.007,7.316
	l5.769,5.768c1.017,1.017,2.368,1.577,3.805,1.577s2.789-0.56,3.806-1.576c4.047-4.048,10.634-4.046,14.681,0l0.229,0.23
	c2.096,2.095,5.511,2.095,7.609-0.002l0.569-0.569c4.048-4.047,10.634-4.047,14.681,0l0.796,0.796c2.099,2.098,5.512,2.098,7.611,0
	l0.771-0.771C124.307,100.878,126.914,99.798,129.687,99.798z M102.52,85.07h8V60.257h-8V85.07z M107.456,14.663
	c0.234,1.363,0.383,2.873,0.383,4.51c0,4.7-2.83,7.16-5.326,9.332c-2.505,2.178-4.668,4.06-4.668,8.373
	c0,8.035,5.758,8.956,6.415,9.034c0.034,0.004,0.094,0.012,0.128,0.017c0.025,0.006,4.048,0.563,7.056-2.034
	c2.49-2.148,3.752-5.917,3.752-11.203C115.194,24.101,111.158,18.236,107.456,14.663z"/>
<g>
</g>
<g>
</g>
<g>
</g>
<g>
</g>
<g>
</g>
<g>
</g>
<g>
</g>
<g>
</g>
<g>
</g>
<g>
</g>
<g>
</g>
<g>
</g>
<g>
</g>
<g>
</g>
<g>
</g>
</svg>
